<svg width="17" height="17" viewBox="0 0 17 17" fill="none" xmlns="http://www.w3.org/2000/svg">
<path d="M0.486853 12.1429H10.4417C10.5057 12.1429 10.569 12.1303 10.6281 12.1059C10.6872 12.0815 10.7409 12.0456 10.7861 12.0004C10.8313 11.9552 10.8672 11.9015 10.8916 11.8424C10.9161 11.7833 10.9286 11.72 10.9286 11.656V10.2011C10.9286 10.1372 10.9161 10.0739 10.8916 10.0148C10.8672 9.95568 10.8313 9.90199 10.7861 9.85677C10.7409 9.81155 10.6872 9.77569 10.6281 9.75124C10.569 9.72679 10.5057 9.71424 10.4417 9.71429H0.486853C0.422904 9.71424 0.359574 9.72679 0.300483 9.75124C0.241393 9.77569 0.187703 9.81155 0.142485 9.85677C0.0972663 9.90199 0.0614069 9.95568 0.036958 10.0148C0.012509 10.0739 -4.97531e-05 10.1372 1.48126e-07 10.2011V11.656C-4.97531e-05 11.72 0.012509 11.7833 0.036958 11.8424C0.0614069 11.9015 0.0972663 11.9552 0.142485 12.0004C0.187703 12.0456 0.241393 12.0815 0.300483 12.1059C0.359574 12.1303 0.422904 12.1429 0.486853 12.1429ZM0.486853 2.42857H10.4417C10.5057 2.42862 10.569 2.41606 10.6281 2.39161C10.6872 2.36716 10.7409 2.33131 10.7861 2.28609C10.8313 2.24087 10.8672 2.18718 10.8916 2.12809C10.9161 2.069 10.9286 2.00567 10.9286 1.94172V0.486853C10.9286 0.422904 10.9161 0.359574 10.8916 0.300483C10.8672 0.241393 10.8313 0.187703 10.7861 0.142485C10.7409 0.0972663 10.6872 0.0614069 10.6281 0.0369579C10.569 0.0125089 10.5057 -4.97531e-05 10.4417 1.48127e-07H0.486853C0.422904 -4.97531e-05 0.359574 0.0125089 0.300483 0.0369579C0.241393 0.0614069 0.187703 0.0972663 0.142485 0.142485C0.0972663 0.187703 0.0614069 0.241393 0.036958 0.300483C0.012509 0.359574 -4.97531e-05 0.422904 1.48126e-07 0.486853V1.94172C-4.97531e-05 2.00567 0.012509 2.069 0.036958 2.12809C0.0614069 2.18718 0.0972663 2.24087 0.142485 2.28609C0.187703 2.33131 0.241393 2.36716 0.300483 2.39161C0.359574 2.41606 0.422904 2.42862 0.486853 2.42857ZM16.3929 4.85714H0.607143C0.446119 4.85714 0.29169 4.92111 0.177828 5.03497C0.0639668 5.14883 1.48126e-07 5.30326 1.48126e-07 5.46429V6.67857C1.48126e-07 6.8396 0.0639668 6.99402 0.177828 7.10789C0.29169 7.22175 0.446119 7.28571 0.607143 7.28571H16.3929C16.5539 7.28571 16.7083 7.22175 16.8222 7.10789C16.936 6.99402 17 6.8396 17 6.67857V5.46429C17 5.30326 16.936 5.14883 16.8222 5.03497C16.7083 4.92111 16.5539 4.85714 16.3929 4.85714ZM16.3929 14.5714H0.607143C0.446119 14.5714 0.29169 14.6354 0.177828 14.7493C0.0639668 14.8631 1.48126e-07 15.0175 1.48126e-07 15.1786V16.3929C1.48126e-07 16.5539 0.0639668 16.7083 0.177828 16.8222C0.29169 16.936 0.446119 17 0.607143 17H16.3929C16.5539 17 16.7083 16.936 16.8222 16.8222C16.936 16.7083 17 16.5539 17 16.3929V15.1786C17 15.0175 16.936 14.8631 16.8222 14.7493C16.7083 14.6354 16.5539 14.5714 16.3929 14.5714Z" fill="white"/>
</svg>
