<svg width="19" height="22" viewBox="0 0 19 22" fill="none" xmlns="http://www.w3.org/2000/svg">
<path d="M2.82962 8.47761V14.1663C2.82962 14.9229 2.23521 15.5271 1.47867 15.5271C0.727056 15.5271 0 14.918 0 14.1663V8.47761C0 7.73582 0.727056 7.12666 1.47867 7.12666C2.22047 7.12666 2.82962 7.73582 2.82962 8.47761ZM3.36018 16.1903C3.36018 16.996 4.00863 17.6444 4.81429 17.6444H5.79189L5.80662 20.646C5.80662 22.4587 8.51835 22.444 8.51835 20.646V17.6444H10.3458V20.646C10.3458 22.4489 13.0723 22.4538 13.0723 20.646V17.6444H14.0646C14.8604 17.6444 15.5089 16.996 15.5089 16.1903V7.3772H3.36018V16.1903ZM15.5433 6.90068H3.30614C3.30614 4.79812 4.56375 2.97065 6.43052 2.01762L5.49222 0.283493C5.35467 0.042778 5.70346 -0.109511 5.82136 0.096816L6.77439 1.84568C8.48887 1.08424 10.4588 1.12354 12.0947 1.84568L13.0428 0.101728C13.1656 -0.109511 13.5095 0.0476905 13.3719 0.288405L12.4336 2.01762C14.2857 2.97065 15.5433 4.79812 15.5433 6.90068ZM7.15757 4.17422C7.15757 3.89421 6.93159 3.65841 6.64176 3.65841C6.36174 3.65841 6.14068 3.89421 6.14068 4.17422C6.14068 4.45424 6.36665 4.69004 6.64176 4.69004C6.93159 4.69004 7.15757 4.45424 7.15757 4.17422ZM12.7284 4.17422C12.7284 3.89421 12.5024 3.65841 12.2273 3.65841C11.9375 3.65841 11.7115 3.89421 11.7115 4.17422C11.7115 4.45424 11.9375 4.69004 12.2273 4.69004C12.5024 4.69004 12.7284 4.45424 12.7284 4.17422ZM17.3855 7.12666C16.6437 7.12666 16.0345 7.72108 16.0345 8.47761V14.1663C16.0345 14.9229 16.6437 15.5271 17.3855 15.5271C18.142 15.5271 18.8642 14.918 18.8642 14.1663V8.47761C18.8642 7.72108 18.1371 7.12666 17.3855 7.12666Z" fill="white"/>
</svg>
